<svg xmlns="http://www.w3.org/2000/svg" xmlns:xlink="http://www.w3.org/1999/xlink" viewBox="0 0 175.834 103.871"><defs><style>.cls-1,.cls-4,.cls-7{fill:#fff}.cls-10,.cls-11,.cls-12,.cls-13,.cls-14,.cls-15,.cls-16,.cls-17,.cls-18,.cls-19,.cls-2,.cls-21,.cls-22,.cls-23,.cls-24,.cls-25,.cls-26,.cls-28,.cls-29,.cls-3,.cls-31,.cls-4,.cls-5,.cls-6,.cls-7,.cls-8,.cls-9{stroke:#231f20;stroke-miterlimit:10}.cls-11,.cls-12,.cls-13,.cls-14,.cls-15,.cls-16,.cls-17,.cls-18,.cls-19,.cls-2,.cls-23,.cls-24,.cls-25,.cls-26,.cls-29,.cls-5,.cls-7,.cls-9{stroke-width:.75px}.cls-2{fill:url(#radial-gradient)}.cls-10,.cls-3,.cls-31,.cls-9{fill:none}.cls-21,.cls-4{stroke-width:.5px}.cls-5{fill:url(#radial-gradient-2)}.cls-6{fill:#f8c5db}.cls-8{fill:#e6e7e8}.cls-10,.cls-28{stroke-width:.25px}.cls-11,.cls-30{fill:#231f20}.cls-12{fill:url(#linear-gradient)}.cls-13{fill:url(#linear-gradient-2)}.cls-14{fill:url(#linear-gradient-3)}.cls-15{fill:url(#linear-gradient-4)}.cls-16{fill:url(#linear-gradient-5)}.cls-17,.cls-28{fill:#404041}.cls-18{fill:url(#linear-gradient-6)}.cls-19{fill:url(#linear-gradient-7)}.cls-20{fill:#a6a8ab}.cls-21{fill:#d0d2d3}.cls-22{fill:#be1e2d}.cls-23{fill:url(#linear-gradient-8)}.cls-24{fill:#58595b}.cls-25{fill:url(#linear-gradient-9)}.cls-26{fill:#808184}.cls-27{fill:#3b3a3c}.cls-29{fill:url(#linear-gradient-10)}.cls-31{stroke-width:1.5px}</style><radialGradient id="radial-gradient" cx="105.1" cy="19.647" r="8.973" fx="98.478" gradientTransform="translate(16.40569 80.24106) rotate(-45)" gradientUnits="userSpaceOnUse"><stop offset=".5" stop-color="#404041"/><stop offset=".5" stop-color="#0d0d0d"/></radialGradient><radialGradient id="radial-gradient-2" cx="160.886" cy="49.993" r="7.065" gradientTransform="translate(102.99508 204.22252) rotate(-81.8385) scale(1 0.70829)" gradientUnits="userSpaceOnUse"><stop offset=".5" stop-color="#404041"/><stop offset=".501" stop-color="#6d6e70"/></radialGradient><linearGradient id="linear-gradient" x1="8.651" x2="16.464" y1="47.218" y2="47.218" gradientTransform="translate(-34.43394 60.00181) rotate(-90)" gradientUnits="userSpaceOnUse"><stop offset=".5" stop-color="#fff"/><stop offset=".5" stop-color="#999"/></linearGradient><linearGradient id="linear-gradient-2" x1="78.283" x2="78.283" y1="51.925" y2="45.738" gradientUnits="userSpaceOnUse"><stop offset=".501" stop-color="#a1a4d1"/><stop offset=".504" stop-color="#c9c0df"/></linearGradient><linearGradient id="linear-gradient-3" x1="16.022" x2="16.022" y1="56.974" y2="36.288" gradientUnits="userSpaceOnUse"><stop offset=".28" stop-color="#fff"/><stop offset=".281" stop-color="#999"/><stop offset=".663" stop-color="#999"/><stop offset=".668" stop-color="#fff"/><stop offset=".669" stop-color="#fff"/></linearGradient><linearGradient id="linear-gradient-4" x1="14.525" x2="21.162" y1="47.138" y2="47.138" gradientUnits="userSpaceOnUse"><stop offset=".5" stop-color="#0d0d0d"/><stop offset=".5" stop-color="#080808"/></linearGradient><linearGradient id="linear-gradient-5" x1="-4.347" x2="44.341" y1="47.218" y2="47.218" gradientTransform="translate(-3.89331 90.54244) rotate(-90)" gradientUnits="userSpaceOnUse"><stop offset=".499" stop-color="#999"/><stop offset=".5" stop-color="#fff"/></linearGradient><linearGradient id="linear-gradient-6" x1="78.636" x2="78.636" y1="98.63" y2="81.787" gradientUnits="userSpaceOnUse"><stop offset=".271" stop-color="#960c3c"/><stop offset=".282" stop-color="#404041"/><stop offset=".498" stop-color="#404041"/><stop offset=".499" stop-color="#960c3c"/><stop offset=".776" stop-color="#960c3c"/><stop offset=".778" stop-color="#3a3a3b"/></linearGradient><linearGradient id="linear-gradient-7" x1="70.077" x2="134.684" y1="59.227" y2="59.227" gradientTransform="matrix(1, 0, 0, 1, 0, 0)" xlink:href="#linear-gradient"/><linearGradient id="linear-gradient-8" x1="156.995" x2="156.995" y1="69.385" y2="30.06" gradientUnits="userSpaceOnUse"><stop offset=".28" stop-color="#fff"/><stop offset=".28" stop-color="#999"/><stop offset=".677" stop-color="#999"/><stop offset=".677" stop-color="#fff"/></linearGradient><linearGradient id="linear-gradient-9" x1="122.822" x2="164.291" y1="50.265" y2="50.265" gradientUnits="userSpaceOnUse"><stop offset=".501" stop-color="#404041"/><stop offset=".504" stop-color="#3b3a3c"/></linearGradient><linearGradient id="linear-gradient-10" x1="138.782" x2="161.335" y1="49.024" y2="49.024" gradientTransform="matrix(1, 0, 0, 1, 0, 0)" xlink:href="#linear-gradient"/></defs><title>-1Asset 79</title><g id="Layer_2" data-name="Layer 2"><g id="Layer_1-2" data-name="Layer 1"><rect width="175.834" height="103.871" class="cls-1"/><path d="M103.72567,17.78373h2.67338a2.46064,2.46064,0,0,1,2.46064,2.46064v2.60611a0,0,0,0,1,0,0H101.265a0,0,0,0,1,0,0V20.24437A2.46064,2.46064,0,0,1,103.72567,17.78373Z" class="cls-2" transform="translate(45.13842 -68.33957) rotate(45)"/><path d="M78.58018,89.53991C80.136,90.626,76.941,92.59265,78.0866,93.6637c.73991.69176,3.05073.64536,4.79.34858,1.45417-.24813,5.94124-.80506,7.68977.19347" class="cls-3"/><path d="M80.526,89.32629c1.61334.99872-1.46845,3.13845-.26555,4.14472.77692.64993,3.08167.47624,4.80191.08406,1.43828-.32791,5.88784-1.1313,7.68875-.23066.87446.43731,2.52273.12609,5.61277.38444,2.87179.2401,5.23.47656,6.843.64718" class="cls-3"/><rect width="6.442" height=".767" x="75.415" y="91.665" class="cls-4"/><path d="M163.1534,55.28707a12.87352,12.87352,0,0,1-.58019-1.18187,20.65632,20.65632,0,0,1-.92223-2.88208,5.19461,5.19461,0,0,0-2.25027-2.88975l-.60714-.539c.33736-.23554,2.53427-1.71561,4.43951-.411a4.2,4.2,0,0,1,1.27085,1.47142c1.10116,2.02087,1.03255,5.486.02337,6.38036C164.33767,55.4032,163.93068,55.64389,163.1534,55.28707Z" class="cls-5"/><path d="M64.15446,50.78056c-2.00562-1.05211-4.51841,2.373-8.30569,3.443-3.7022,1.04594-3.61761-1.63819-8.2761-.31141-3.54565,1.00983-4.41883,1.94475-4.72207,2.8393-.45214,1.33381.24771,2.85517.683,2.96338,2.41686.60074.98667-1.33739,1.49406-2.79887.70758-2.03808,4.94976-1.29632,8.38435-1.06931,6.40012.423,11.88652-2.28661,11.79609-3.9803C65.17882,51.31793,64.47618,50.94934,64.15446,50.78056Z" class="cls-6"/><rect width="3.208" height="1.766" x="70.776" y="87.89" class="cls-7" transform="translate(0.26665 -0.21675) rotate(0.17189)"/><rect width="1.751" height="14.336" x="98.571" y="41.133" class="cls-4"/><g><path d="M89.14726,43.9444c-.19506,1.05437-.59644,2.89075-1.48174,2.727s-1.91926-2.2657-1.72421-3.32007a1.65514,1.65514,0,1,1,3.206.5931Z" class="cls-4"/><path d="M96.26149,50.88967c0,5.90541-7.43438,5.15766-16.60514,5.15766s-16.60514.74775-16.60514-5.15766S71.62653,37.61688,79.46282,40.5674c1.29024.4858,2.40031,2.36885,2.91568,2.203,5.26551-1.69448,8.83437,2.27416,9.86376,3.74423C93.74346,48.65849,96.26149,48.31935,96.26149,50.88967Z" class="cls-8"/><polyline points="95.274 48.759 94.318 49.162 95.274 50.211 96.034 50.211" class="cls-9"/><path d="M96.26149,51.402a3.172,3.172,0,0,1-1.32952.25183,2.38449,2.38449,0,0,1-1.367-.34121" class="cls-9"/><g><path d="M92.167,50.79753a3.15584,3.15584,0,0,1-2.94933-.25088" class="cls-10"/><path d="M92.05085,51.38659a3.15585,3.15585,0,0,1-2.95988-.02443" class="cls-10"/><path d="M92.10956,50.35886a3.15585,3.15585,0,0,1-2.76436-1.05823" class="cls-10"/></g><g><path d="M92.167,48.05172c0,.54892.10394.99391-.445.99391s-1.54283-.445-1.54283-.99391a.99391.99391,0,1,1,1.98782,0Z" class="cls-11"/><circle cx="90.727" cy="47.621" r=".225" class="cls-1"/></g></g><g><rect width="3.098" height="7.813" x="11.235" y="43.311" class="cls-12" transform="translate(60.00181 34.43394) rotate(90)"/><rect width="1.95" height="1.95" x="67.649" y="46.273" class="cls-7" transform="translate(115.87259 -21.37525) rotate(90)"/><rect width="6.187" height="6.187" x="75.189" y="44.091" class="cls-13"/><rect width="3.1" height="50.968" x="14.473" y="37.367" class="cls-14"/><path d="M14.35012,44.37079h4.56312a1.38729,1.38729,0,0,1,1.38729,1.38729v2.76046a1.38729,1.38729,0,0,1-1.38729,1.38729H14.35012a.686.686,0,0,1-.686-.686V45.05676A.686.686,0,0,1,14.35012,44.37079Z" class="cls-15"/><rect width="3.098" height="48.688" x="41.775" y="22.874" class="cls-16" transform="translate(90.54244 3.89331) rotate(90)"/><path d="M14.493,70.0969h3.05865a.789.789,0,0,1,.789.789V94.356a0,0,0,0,1,0,0H13.704a0,0,0,0,1,0,0V70.88593A.789.789,0,0,1,14.493,70.0969Z" class="cls-17"/><path d="M76.43385,47.9774l-6.28071.97768c-.29776.04635-.554-.36759-.554-.89494V46.37565c0-.53375.26221-.94979.56306-.89339L76.43385,46.658Z" class="cls-17"/></g><g><rect width="7.38" height="7.38" x="74.946" y="84.171" class="cls-18"/><rect width="4.404" height="12.191" x="76.434" y="71.662" class="cls-17"/><rect width="5.889" height="1.535" x="75.574" y="82.667" class="cls-17"/></g><rect width="64.608" height="6.246" x="45.86" y="56.104" class="cls-19"/><path d="M66.56992,56.59542h24.1169a0,0,0,0,1,0,0v.43349a.56693.56693,0,0,1-.56693.56693h-22.983a.56693.56693,0,0,1-.56693-.56693v-.43349A0,0,0,0,1,66.56992,56.59542Z" class="cls-20"/><rect width="16.267" height="1.987" x="84.056" y="40.888" class="cls-4"/><path d="M85.68017,43.11562c.22178,1.04908.551,2.89975-.3298,3.086S82.7121,44.839,82.49033,43.79a1.65513,1.65513,0,1,1,3.18984-.67433Z" class="cls-21"/><line x1="7.143" x2="172.143" y1="94.356" y2="94.356" class="cls-22"/><path d="M66.63257,83.99406H68.705a3.43384,3.43384,0,0,1,3.43384,3.43384v4.3a0,0,0,0,1,0,0H63.19873a0,0,0,0,1,0,0v-4.3A3.43384,3.43384,0,0,1,66.63257,83.99406Z" class="cls-17"/><rect width="7.49" height="1.795" x="63.872" y="92.049" class="cls-7"/><rect width="1.322" height="4.146" x="73.051" y="86.704" class="cls-7" transform="translate(0.26667 -0.22074) rotate(0.17189)"/><path d="M160.07011,34.51411h-6.16088c-.05689.06293-.11609.12387-.17583.18441V93.55459h6.52326V34.73094Q160.1606,34.62452,160.07011,34.51411Z" class="cls-23"/><rect width="8.567" height="3.69" x="152.711" y="53.164" class="cls-24" rx="1.417"/><g><polygon points="146.145 72.447 104.676 77.128 104.676 23.402 146.145 28.074 146.145 72.447" class="cls-25"/><polygon points="108.64 76.817 104.676 77.128 104.676 23.402 108.64 23.764 108.64 76.817" class="cls-26"/></g><polygon points="136.017 41.882 126.899 40.876 122.286 48.865 126.899 56.854 136.017 55.767 139.667 48.865 136.017 41.882" class="cls-17"/><path d="M137.02438,51.24942l-4.79524.71006a1.442,1.442,0,0,1-1.40586-1.47552v-2.883a1.442,1.442,0,0,1,1.40586-1.47551l3.02958.56995Z" class="cls-27"/><circle cx="128.224" cy="43.184" r=".618" class="cls-28"/><circle cx="135.029" cy="43.802" r=".461" class="cls-28"/><circle cx="128.224" cy="55.149" r=".618" class="cls-28"/><circle cx="135.029" cy="54.069" r=".461" class="cls-28"/><circle cx="125.457" cy="48.865" r=".618" class="cls-28"/><path d="M132.08774,46.88575h20.51151a.93042.93042,0,0,1,.93042.93042v2.41545a.93042.93042,0,0,1-.93042.93042H132.08774a1.11119,1.11119,0,0,1-1.11119-1.11119v-2.0539A1.11119,1.11119,0,0,1,132.08774,46.88575Z" class="cls-29"/><rect width="11.175" height="8.743" x="151.408" y="44.485" class="cls-24" rx="2.161"/><path d="M131.56829,51.618a4.2564,4.2564,0,0,1-.745-1.95161" class="cls-4"/><path d="M130.91928,48.38306a4.25673,4.25673,0,0,1,.553-2.01445" class="cls-4"/><rect width="3.1" height="51.18" x="121.757" y="11.671" class="cls-7"/><rect width="8.076" height="4.706" x="119.066" y="19.615" class="cls-17" transform="translate(101.13647 145.07178) rotate(-90)"/><rect width="3.1" height="29.226" x="118.039" y="3.426" class="cls-7" transform="translate(26.91338 95.74484) rotate(-48.55702)"/><rect width="8.076" height="4.706" x="109.046" y="9.943" class="cls-17" transform="translate(189.71446 96.36016) rotate(-138.55702)"/><rect width="3.1" height="16.411" x="110.867" y="4.757" class="cls-7" transform="translate(42.09229 -75.69365) rotate(45.00002)"/><rect width="8.076" height="4.706" x="118.918" y="18.659" class="cls-17" transform="translate(201.21739 118.14463) rotate(-138.55702)"/><rect width="8.076" height="4.706" x="109.046" y="9.943" class="cls-17" transform="translate(201.7403 -58.97186) rotate(135)"/><g><path d="M106.96837,21.2606c1.67286-.28168,5.47132.49005,6.642-1.48932,4.79126-8.10046,5.97815-5.308,7.14087-3.54651,2.343,3.54969,8.41492,3.26575,8.28223,7.25641-.11975,3.60138-4.29883,3.59216-7.38416,8.35376-5.22607,8.06561-1.11609,20.25415,2.01392,29.53638.84363,2.502,1.67041,4.51062,2.23755,5.81775" class="cls-9"/><path d="M107.13061,21.75047a.50759.50759,0,1,1,.35766-.62238A.50774.50774,0,0,1,107.13061,21.75047Z" class="cls-30"/></g><path d="M126.38223,62.851h-6.16088c-.05689.03272-.11608.06442-.17583.0959V93.55459h6.52326V62.96374Q126.47274,62.90839,126.38223,62.851Z" class="cls-7"/><path d="M118.50862,90.28038h9.59706a.73652.73652,0,0,1,.73652.73652v2.8805a0,0,0,0,1,0,0H117.7721a0,0,0,0,1,0,0v-2.8805A.73652.73652,0,0,1,118.50862,90.28038Z" class="cls-7"/><path d="M136.55085,67.57971c1.59109,2.48268,3.372,6.17387,2.23984,9.66671-1.113,3.43369-4.16938,3.98625-4.47969,7.07317-.34016,3.38391,2.92382,6.787,5.89432,8.252.68518.33792,2.4699,1.12268,8.95938.82524A72.82428,72.82428,0,0,0,159.30293,92.218" class="cls-31"/><path d="M141.85574,67.81549c1.29445,2.769,2.48365,6.60907,1.41462,10.60978-.88387,3.3078-2.67513,4.344-2.35771,6.83742.545,4.28138,6.52072,6.68448,7.78049,7.19107a18.31965,18.31965,0,0,0,11.67076.47156" class="cls-3"/><path d="M134.74361,67.18906h3.30871a0,0,0,0,1,0,0v1.477a0,0,0,0,1,0,0h-3.30871a.46365.46365,0,0,1-.46365-.46365v-.54968A.46365.46365,0,0,1,134.74361,67.18906Z" class="cls-11"/><path d="M141.09592,67.18906h1.665a0,0,0,0,1,0,0v1.477a0,0,0,0,1,0,0h-1.665a.46365.46365,0,0,1-.46365-.46365v-.54968A.46365.46365,0,0,1,141.09592,67.18906Z" class="cls-11"/><path d="M152.1965,90.28038h9.59706a.73652.73652,0,0,1,.73652.73652v2.8805a0,0,0,0,1,0,0H151.46a0,0,0,0,1,0,0v-2.8805A.73652.73652,0,0,1,152.1965,90.28038Z" class="cls-7"/></g></g></svg>