<svg xmlns="http://www.w3.org/2000/svg" xmlns:xlink="http://www.w3.org/1999/xlink" viewBox="0 0 193.191 137.054"><defs><style>.cls-1,.cls-4{fill:#535353}.cls-1,.cls-17,.cls-18,.cls-19,.cls-4,.cls-5{stroke:#000}.cls-1,.cls-10,.cls-11,.cls-12,.cls-13,.cls-14,.cls-15,.cls-17,.cls-18,.cls-19,.cls-4,.cls-5,.cls-6,.cls-7,.cls-8,.cls-9{stroke-miterlimit:10}.cls-1{stroke-width:.99214px}.cls-2{fill:#ff645e}.cls-3{fill:#ffbf49}.cls-16,.cls-5,.cls-8{fill:#fff}.cls-10,.cls-11,.cls-14,.cls-15,.cls-6,.cls-9{stroke:#231f20}.cls-10,.cls-14,.cls-6{stroke-width:.75px}.cls-6{fill:url(#radial-gradient)}.cls-15,.cls-7{fill:#302d2f}.cls-12,.cls-7{stroke:#be1e2d}.cls-15,.cls-18,.cls-19,.cls-7{stroke-width:.5px}.cls-13,.cls-8{stroke:#00a551}.cls-11,.cls-8{stroke-width:.25px}.cls-10,.cls-11,.cls-12,.cls-13,.cls-18,.cls-19,.cls-9{fill:none}.cls-12,.cls-13{stroke-width:.2px}.cls-14{fill:url(#radial-gradient-2)}.cls-17{fill:#1a1a1a}.cls-18{stroke-dasharray:2}.cls-19{stroke-dasharray:2.01907 2.01907}.cls-20{font-size:8px;font-family:ArialMT,Arial}</style><radialGradient id="radial-gradient" cx="59.506" cy="46.774" r="13.336" gradientTransform="matrix(-0.99862, -0.05256, 0.03404, -0.64673, 117.3369, 80.15238)" gradientUnits="userSpaceOnUse"><stop offset=".5" stop-color="#808184"/><stop offset=".506" stop-color="#58595b"/></radialGradient><radialGradient id="radial-gradient-2" cx="14.639" cy="46.774" r="13.336" gradientTransform="matrix(-0.99862, -0.05256, 0.03404, -0.64673, 27.66651, 77.79351)" xlink:href="#radial-gradient"/></defs><title>-1Asset 1</title><g id="Layer_2" data-name="Layer 2"><g id="Layer_1-2" data-name="Layer 1"><g><rect width="68.696" height="122.774" x="100.057" y="13.784" class="cls-1"/><circle cx="104.456" cy="17.207" r="1.5" class="cls-2"/><circle cx="108.791" cy="17.207" r="1.5" class="cls-3"/></g><g><rect width="95.335" height="64.575" x=".5" y="14.082" class="cls-4"/><ellipse cx="4.774" cy="17.505" class="cls-2" rx="1.457" ry="1.5"/><ellipse cx="8.986" cy="17.505" class="cls-3" rx="1.457" ry="1.5"/></g><g><rect width="44.838" height="56.047" x="48.134" y="20.87" class="cls-5"/><g><g><path d="M66.70145,48.46224c-.34162,2.686-4.80471,4.27391-8.32155,3.77862s-6.09086-3.07425-5.74923-5.76028,3.46952-4.462,6.98635-3.96665S67.04306,45.77622,66.70145,48.46224Z" class="cls-6"/><circle cx="59.661" cy="47.381" r="3.566" class="cls-7"/><path d="M60.85735,47.047a1.24355,1.24355,0,0,0,0,2.48707A1.24355,1.24355,0,0,0,60.85735,47.047Z" class="cls-8"/></g><path d="M78.84906,65.70726a15.13863,15.13863,0,0,0,2.7375-9.35185c0-8.74383-8.566-7.59017-13.67289-14.88326-2.33082-3.32871-8.493-10.41671-17.63287-13.08938.00038.09313.00745.18184.00426.27724" class="cls-9"/><polyline points="79.819 50.945 77.934 51.74 79.819 53.806 81.315 53.806" class="cls-10"/><path d="M81.76249,56.15136a6.24729,6.24729,0,0,1-2.61846.496,4.69612,4.69612,0,0,1-2.6923-.672" class="cls-10"/><g><path d="M73.69846,54.96082a6.21529,6.21529,0,0,1-5.80861-.49409" class="cls-11"/><path d="M73.46977,56.121a6.21535,6.21535,0,0,1-5.8294-.04811" class="cls-11"/><path d="M73.58538,54.09688a6.21531,6.21531,0,0,1-5.4443-2.08415" class="cls-11"/></g><rect width="10.678" height="12.64" x="54.156" y="41.166" class="cls-12"/><rect width="4.765" height="4.554" x="58.462" y="46.072" class="cls-13"/></g></g><g><rect width="44.838" height="56.047" x="3.268" y="20.869" class="cls-5"/><g><g><path d="M21.83524,48.46178c-.34162,2.686-4.80471,4.27391-8.32155,3.77862s-6.09085-3.07424-5.74923-5.76028,3.46952-4.462,6.98635-3.96665S22.17686,45.77576,21.83524,48.46178Z" class="cls-14"/><circle cx="14.795" cy="47.381" r="3.566" class="cls-15"/><path d="M15.99115,47.04652a1.24354,1.24354,0,0,0,0,2.48706A1.24354,1.24354,0,0,0,15.99115,47.04652Z" class="cls-16"/></g><path d="M33.98286,65.7068A15.13867,15.13867,0,0,0,36.72035,56.355c0-8.74383-8.566-7.59017-13.67289-14.88326C20.71665,38.143,14.55449,31.055,5.41459,28.38231c.00038.09313.00745.18184.00426.27724" class="cls-9"/><polyline points="34.952 50.945 33.068 51.739 34.952 53.806 36.449 53.806" class="cls-10"/><path d="M36.89628,56.1509a6.24725,6.24725,0,0,1-2.61846.496,4.69616,4.69616,0,0,1-2.6923-.672" class="cls-10"/><g><path d="M28.83225,54.96036a6.21529,6.21529,0,0,1-5.80861-.49409" class="cls-11"/><path d="M28.60356,56.12049a6.21533,6.21533,0,0,1-5.82939-.04811" class="cls-11"/><path d="M28.71917,54.09642a6.21531,6.21531,0,0,1-5.4443-2.08415" class="cls-11"/></g></g></g><rect width="59.248" height="56.047" x="104.829" y="20.989" class="cls-17"/><rect width="59.248" height="56.047" x="104.781" y="76.817" class="cls-17"/><g><circle cx="135.453" cy="49.013" r="9" class="cls-16"/><path d="M138.47115,48.16979c-4.16259,0-4.1695,6.27659,0,6.27659C142.63373,54.44638,142.64064,48.16979,138.47115,48.16979Z" class="cls-18"/></g><g><circle cx="134.453" cy="104.841" r="9" class="cls-19"/><path d="M137.47115,103.99763c-4.16259,0-4.1695,6.27659,0,6.27659C141.63373,110.27422,141.64064,103.99763,137.47115,103.99763Z" class="cls-16"/></g><text class="cls-20" transform="translate(31.58552 6.865)">Preview</text><text class="cls-20" transform="translate(122.63568 6.86502)">Binary</text><text class="cls-20" transform="translate(180.79353 56.01221) rotate(-90)">Pupil</text><text class="cls-20" transform="translate(180.99362 118.84717) rotate(-90)">Corneal<tspan x="-2.223" y="9.6">reflection</tspan></text></g></g></svg>